<svg width="50" height="95" viewBox="0 0 50 95" fill="none" xmlns="http://www.w3.org/2000/svg">
<path d="M41.4548 47.5L1.03808 6.07064C0.705321 5.73677 0.442252 5.3404 0.264088 4.90445C0.0859238 4.4685 -0.0037988 4.00163 0.00012207 3.53087C0.00404294 3.06011 0.101526 2.59479 0.286926 2.16186C0.472327 1.72892 0.741965 1.33696 1.08024 1.00865C1.41851 0.680338 1.8187 0.422203 2.25765 0.249181C2.6966 0.0761586 3.1656 -0.0083163 3.63749 0.000645159C4.10939 0.00960662 4.57481 0.111827 5.00684 0.301389C5.43887 0.490952 5.82892 0.764093 6.15442 1.10501L48.9889 45.0172C49.6372 45.6819 50 46.5726 50 47.5C50 48.4274 49.6372 49.3181 48.9889 49.9828L6.15442 93.895C5.82892 94.2359 5.43887 94.509 5.00684 94.6986C4.57481 94.8882 4.10939 94.9904 3.63749 94.9994C3.1656 95.0083 2.6966 94.9238 2.25765 94.7508C1.8187 94.5778 1.41851 94.3197 1.08024 93.9914C0.741965 93.663 0.472327 93.2711 0.286926 92.8381C0.101526 92.4052 0.00404294 91.9399 0.00012207 91.4691C-0.0037988 90.9984 0.0859238 90.5315 0.264088 90.0956C0.442252 89.6596 0.705321 89.2632 1.03808 88.9294L41.4548 47.5Z" fill="#C71837"/>
</svg>
