<svg width="50" height="95" viewBox="0 0 50 95" fill="none" xmlns="http://www.w3.org/2000/svg">
<path d="M8.5452 47.5L48.9619 6.07064C49.2947 5.73677 49.5577 5.3404 49.7359 4.90445C49.9141 4.4685 50.0038 4.00163 49.9999 3.53087C49.996 3.06011 49.8985 2.59479 49.7131 2.16186C49.5277 1.72892 49.258 1.33696 48.9198 1.00865C48.5815 0.680338 48.1813 0.422203 47.7424 0.249181C47.3034 0.0761586 46.8344 -0.0083163 46.3625 0.000645159C45.8906 0.00960662 45.4252 0.111827 44.9932 0.301389C44.5611 0.490952 44.1711 0.764093 43.8456 1.10501L1.01108 45.0172C0.36275 45.6819 0 46.5726 0 47.5C0 48.4274 0.36275 49.3181 1.01108 49.9828L43.8456 93.895C44.1711 94.2359 44.5611 94.5091 44.9932 94.6986C45.4252 94.8882 45.8906 94.9904 46.3625 94.9994C46.8344 95.0083 47.3034 94.9238 47.7424 94.7508C48.1813 94.5778 48.5815 94.3197 48.9198 93.9914C49.258 93.6631 49.5277 93.2711 49.7131 92.8382C49.8985 92.4052 49.996 91.9399 49.9999 91.4691C50.0038 90.9984 49.9141 90.5315 49.7359 90.0956C49.5577 89.6596 49.2947 89.2632 48.9619 88.9294L8.5452 47.5Z" fill="#C71837"/>
</svg>
